<?xml version="1.0" encoding="UTF-8" standalone="no"?>
<svg
   height="58.754639"
   id="svg65"
   version="1.1"
   viewBox="0 0 96.02639 58.754639"
   width="96.02639"
   x="0px"
   xmlns="http://www.w3.org/2000/svg"
   y="0px"
   xml:space="preserve">

    <g id="g97" transform="translate(-1.99375,-20.653524)">

        <path
         d="m 14.5,41.6 c 0.2,-1.5 3.6,-3.8 3.6,-3.8 0,0 -1.7,-5.5 -2.8,-7.2 -1.1,-1.7 -3,-2.7 -4.9,-5.5 -1.9,-2.8 -2.8,-1.9 -2.8,-1.9 0,4.2 0.8,9.5 3.4,12.7 2.6,3.2 3.5,5.7 3.5,5.7 z"
         id="path51" />

        <path
         d="M 62.5,58.4 C 58.7,60.2 52,60.2 52,60.2 c 0,0 2.3,4 2.4,5 0.1,1 -1.7,5.1 -5.4,6.3 -3.7,1.1 -2.8,2.3 -1.4,3 1.4,0.7 5.1,0.3 7,-0.1 1.8,-0.4 1.3,-2 4,-5.7 C 61.3,64.9 62,62 62,62 Z"
         id="path53" />

        <path
         d="m 31,68.5 c 0.1,-1 1.1,-5.5 1.1,-5.5 0,0 -0.4,-1.1 -0.9,-2.3 -0.4,-1.1 -3.3,-3.3 -4.4,-3.8 -1.1,-0.6 -2.6,0 -2.6,0 0,0 0.3,1.8 0.7,3.8 0.4,2 2,5.1 2.1,6.8 0.1,1.7 -1.3,3.6 -3.1,5.1 -1.8,1.6 -3.1,1.8 -3,3 0.1,0.6 3.4,1 4.8,0.3 1.4,-0.7 2.7,-2 4.3,-3.6 1.7,-1.5 0.8,-2.8 1,-3.8 z"
         id="path55" />

        <path
         d="M 97.7,71.7 C 95.3,70.2 89.8,66.3 88.3,58.8 86.4,49.3 85.6,37.9 77.5,30.2 69.3,22.4 62.9,20.3 55.1,20.7 48.6,21 36.6,27.7 30.9,31.6 29,37.3 25,40.9 25,40.9 c 1.6,-2 2.9,-5.2 3.5,-7 C 30.1,31 27.6,26.1 28,23.9 28.4,21.6 26.7,22 26.7,22 c -6.3,3.8 -6.3,10.6 -6.3,11.9 0,0.9 -0.2,3.3 -0.3,4.7 -0.7,0.2 -1.5,0.5 -2.2,1 -2.5,1.9 -5.5,10.1 -8,13.5 -2.5,3.4 -6.6,4.9 -6.6,6.3 0,1.3 1.5,4.9 2.7,4.9 0.3,0 0.6,0 0.9,0 -0.7,0.9 -1.5,2.7 -1.1,5.6 0.6,4.7 1.3,7.5 -1,7 C 3.5,76.6 3.6,75.7 4,75.1 c 0.3,-0.4 0.1,-1 -0.4,-1.2 -0.4,-0.2 -0.9,0 -1.1,0.4 -0.3,0.6 -0.7,1.6 -0.4,2.3 0.4,1.3 4,4.1 5.7,0.3 0.8,-1.7 0.1,-4.8 -0.3,-7.5 -0.2,-1.3 0.3,-2.6 0.9,-3.5 0.2,0.2 0.6,0.4 1.2,0.4 2.1,0 3.2,-4 6.3,-5.9 3.1,-1.9 6.6,-5.7 9.3,-5.9 2.7,-0.2 8.2,4.2 8.9,7.8 0.8,3.6 2.8,11 1.3,12.5 -1.5,1.5 -1.5,0 -4,1.7 -1.2,0.8 -1.7,1.5 -1.8,2 -0.2,0.4 0.1,0.9 0.6,0.9 1.6,0 5.9,0.1 7.1,-0.4 1.5,-0.6 4.2,-2.1 4,-4 -0.2,-1.9 0.8,-8 1.3,-9.3 0.6,-1.3 3,-8.2 3.6,-12.7 0,0 0.8,2.7 0.2,5.9 0,0 15,-0.2 18.2,-3.6 0,0 2.7,4.6 2.8,6.8 0.2,2.3 0.6,10.8 -1.3,12.7 0,0 -4.2,1.3 -5.1,2.5 -0.9,1.1 -0.9,2.1 2.8,2.1 3.7,0 5.7,-0.4 7.6,-2.8 1.9,-2.5 4.7,-10.8 5.7,-12.7 0.9,-1.9 4.7,-16.3 3.2,-20.3 0,0 2.5,5.1 0.9,13.8 0,0 3.5,7.9 5.9,10.4 2.4,2.6 7.3,6 10.4,5.2 0.6,-0.2 0.7,-1 0.2,-1.3 z M 6.4,62.7 C 6.1,62.9 5.6,62.6 5.3,62.2 5,61.8 5.1,61.2 5.5,61 c 0.3,-0.2 0.8,0.1 1.1,0.5 0.2,0.5 0.1,1 -0.2,1.2 z M 17.7,50.9 c -0.7,0 -1.2,-0.5 -1.2,-1.2 0,-0.7 0.5,-1.2 1.2,-1.2 0.7,0 1.2,0.5 1.2,1.2 0,0.7 -0.6,1.2 -1.2,1.2 z"
         id="path57" />

    </g>

</svg>