<svg height="59" version="1" width="96" xmlns="http://www.w3.org/2000/svg"><path d="M13 21c0-2 3-4 3-4l-3-7-5-6C7 2 6 3 6 3c0 4 0 9 3 12l4 6zM61 38c-4 2-11 2-11 2l2 5c1 1-1 5-5 6s-3 2-1 3h7l4-6 3-7zM29 48l1-6-1-2-4-4h-3l1 4 2 7c0 2-1 3-3 5l-3 3h5l4-3c2-2 1-3 1-4z"/><path d="M96 51c-3-1-8-5-10-13-2-9-2-21-10-28C67 2 61 0 53 0c-6 0-18 7-24 11-2 6-6 9-6 9l4-7c1-3-1-8-1-10l-1-2c-7 4-7 11-7 12v5l-2 1c-3 2-6 10-8 13-3 4-7 5-7 7l3 5h1c-1 1-2 2-1 5 0 5 1 8-1 7l-1-2v-1l-1 1-1 2c1 1 4 4 6 0V45l2 1c2 0 3-4 6-6s7-6 9-6c3 0 8 4 9 8 1 3 3 11 1 12-1 2-1 0-4 2l-1 2v1l7-1c2 0 5-2 4-4l2-9c0-1 3-8 3-13v6s15 0 19-3l2 6c1 3 1 11-1 13 0 0-4 1-5 3-1 1-1 2 3 2s6-1 7-3l6-13c1-2 5-16 3-20 0 0 3 5 1 14l6 10c3 3 7 6 11 5v-1zM4 42H3l1-2 1 1-1 1zm12-12l-1-1 1-1 1 1-1 1z"/></svg>