<svg version="1.1" xmlns="http://www.w3.org/2000/svg" xmlns:xlink="http://www.w3.org/1999/xlink" width="48" height="48"><defs><linearGradient x1="8.70222" y1="8.4432" x2="73.07524" y2="73.33422" gradientUnits="userSpaceOnUse" id="color-1"><stop offset="0" stop-color="#000000" stop-opacity="0.3"></stop><stop offset="1" stop-color="#000000" stop-opacity="0"></stop></linearGradient><filter id="dropshadow-base"><feColorMatrix type="matrix" values="0 0 0 0 0  0 0 0 0 0  0 0 0 0 0  0 0 0 .8 0"></feColorMatrix> <feOffset dx="0" dy="1"></feOffset> <feGaussianBlur stdDeviation="1"></feGaussianBlur> <feComposite in="SourceGraphic"></feComposite></filter><filter id="dropshadow-banner" x="-10%" y="-10%" width="120%" height="130%"><feColorMatrix type="matrix" values="0 0 0 0 0  0 0 0 0 0  0 0 0 0 0  0 0 0 .4 0"></feColorMatrix> <feOffset dx="0" dy="1"></feOffset> <feGaussianBlur stdDeviation="0.5"></feGaussianBlur> <feComposite in="SourceGraphic"></feComposite></filter></defs><g fill="none" fill-rule="nonzero" stroke="none" stroke-width="none" stroke-linecap="butt" stroke-linejoin="miter" stroke-miterlimit="10" stroke-dasharray="" stroke-dashoffset="0" font-family="none" font-weight="none" font-size="none" text-anchor="none" style="mix-blend-mode: normal"><path d="M2,24c0,-12.15026 9.84974,-22 22,-22c12.15026,0 22,9.84974 22,22c0,12.15026 -9.84974,22 -22,22c-12.15026,0 -22,-9.84974 -22,-22z" id="base 1 5" fill="#4caf50" stroke-width="1"></path><path d="M10.20614,32.50943c-0.36175,-0.36175 -0.63873,-0.69631 -1.02192,-1.1925c-0.74218,-0.93034 -0.669,-1.17077 0.51221,-1.96521c0.39723,-0.25088 0.95125,-0.72127 1.23348,-1.02441c1.54708,-1.66206 2.1011,-2.15335 2.61331,-2.33106c0.48084,-0.17771 0.61673,-0.30314 1.35892,-1.30665c0.44948,-0.60629 0.97214,-1.30665 1.13939,-1.55753c1.41117,-1.97566 2.8119,-3.49138 3.71088,-4.01404c0.36586,-0.19861 0.4495,-0.32405 0.59584,-0.80489c0.20905,-0.73173 0.87807,-2.05928 1.4948,-2.97917c0.669,-1.00351 2.33106,-2.71783 3.35547,-3.46001c0.47039,-0.34496 1.14985,-0.85716 1.50526,-1.13939c0.8676,-0.68991 1.59933,-1.01396 2.32061,-1.03487c0.44524,-0.00873 0.57695,0.01171 0.74225,0.177l0.98107,0.98107c0.29372,-0.33709 0.60821,-0.53231 1.42311,-0.94901c1.17076,-0.58537 1.28575,-0.62719 2.74919,-1.17076l0.00003,-0.00002c0.9826,-0.35541 1.05576,-0.36586 1.29619,-0.1568c0.01039,0.00841 0.02014,0.01714 0.02925,0.02626l8.72648,8.72648c0.66775,2.10267 1.02804,4.3423 1.02804,6.66608c0,12.15026 -9.84974,22 -22,22c-0.10195,0 -0.20374,-0.00069 -0.30536,-0.00208z" fill="url(#color-1)" stroke-width="1"></path><path d="M34.92001,8.73799c-1.46345,0.54357 -1.57843,0.58538 -2.74919,1.17076c-0.91988,0.47039 -1.20212,0.65855 -1.53662,1.08713c-0.22997,0.29269 -0.41813,0.58538 -0.42858,0.6481c0,0.07317 -0.05227,0.01045 -0.10453,-0.12544c-0.05227,-0.13589 -0.07317,-0.47039 -0.03136,-0.74218c0.05227,-0.41813 0.03136,-0.52266 -0.19861,-0.78399c-0.22997,-0.27178 -0.3136,-0.30314 -0.84671,-0.29269c-0.72127,0.02091 -1.453,0.34496 -2.32061,1.03487c-0.35541,0.28224 -1.03487,0.79444 -1.50526,1.1394c-1.02441,0.74218 -2.68647,2.4565 -3.35548,3.46001c-0.61674,0.91988 -1.28574,2.24744 -1.49481,2.97916c-0.14634,0.48085 -0.22997,0.60629 -0.59583,0.8049c-0.89898,0.52266 -2.29971,2.03838 -3.71089,4.01403c-0.16725,0.25088 -0.68991,0.95124 -1.1394,1.55753c-0.74218,1.00351 -0.87807,1.12895 -1.35892,1.30665c-0.51221,0.1777 -1.06623,0.66901 -2.6133,2.33107c-0.28224,0.30314 -0.83626,0.77354 -1.23348,1.02441c-1.18121,0.79444 -1.25439,1.03487 -0.51221,1.9652c0.81535,1.05577 1.14985,1.37982 2.84327,2.79101c1.81886,1.52617 2.88509,2.17427 5.26842,3.23004c2.47741,1.09759 4.79802,1.80841 6.75277,2.08019c1.30665,0.1777 3.58545,0.18816 4.35899,0.01045c0.63765,-0.13589 0.63765,-0.14634 0.75263,-0.59583c0.08363,-0.30314 0.08363,-0.74218 0.02091,-1.37982c-0.05227,-0.52266 -0.07317,-1.54707 -0.05227,-2.28925c0.03136,-0.83626 -0.01045,-1.9443 -0.10453,-2.9478c-0.09408,-0.88852 -0.13589,-1.64115 -0.10453,-1.67251c0.03136,-0.03136 0.47039,-0.06272 0.9617,-0.06272c0.83626,0 0.97215,0.03136 1.71433,0.38677c1.00351,0.50175 1.82931,0.66901 3.21959,0.68991c1.4739,0.01045 1.67251,-0.08363 2.97916,-1.4739c1.20212,-1.2962 1.40073,-1.62025 1.48436,-2.51922c0.08363,-0.9617 -0.10453,-1.6307 -0.71082,-2.4356c-0.28224,-0.36586 -0.57493,-0.79444 -0.65855,-0.95124c-0.21952,-0.43903 -0.45994,-1.75614 -0.45994,-2.58194c0,-0.40768 -0.06272,-0.87807 -0.12544,-1.04532c-0.06272,-0.1777 -0.74218,-0.93034 -1.51572,-1.67251c-1.10804,-1.08713 -1.41118,-1.44254 -1.50526,-1.77705c-0.1568,-0.57493 -0.14634,-1.23348 0.03136,-1.92339c0.08363,-0.32405 0.19861,-0.89898 0.26133,-1.28574c0.11499,-0.71082 0.76308,-2.55058 1.34846,-3.85723c0.42858,-0.95124 0.4913,-1.27529 0.27178,-1.453c-0.24042,-0.20906 -0.3136,-0.19861 -1.2962,0.1568zM33.94786,10.25371c0.34496,0.20906 0.52266,0.59583 0.40768,0.88852c-0.09408,0.25088 -0.58538,0.39722 -1.05577,0.3136c-0.22997,-0.04181 -0.78399,-0.10453 -1.23348,-0.14634l-0.8258,-0.06272l0.24042,-0.30314c0.6481,-0.81535 1.75614,-1.12895 2.46696,-0.68991zM23.10788,20.8219c1.57843,1.05577 2.79101,3.28231 3.30321,6.06286c0.25088,1.34846 0.25088,4.45307 0,5.84334c-0.37632,2.11155 -1.10804,4.30672 -1.51572,4.57851c-0.22997,0.1568 -0.26133,0.1568 -0.4913,-0.12544c-0.34496,-0.39722 -0.3136,-0.73172 0.16725,-2.15336c0.9617,-2.85373 1.1394,-5.72836 0.52266,-8.34166c-0.44949,-1.88158 -1.6307,-3.70044 -2.80146,-4.29627c-0.63765,-0.32405 -0.83626,-1.01396 -0.4913,-1.68297c0.21952,-0.42858 0.52266,-0.40768 1.30665,0.11499zM20.2228,23.23659c2.52968,1.67251 3.37639,6.81549 1.87112,11.42536c-0.37632,1.18121 -0.66901,1.46345 -1.01396,0.97215c-0.22997,-0.32405 -0.20906,-0.73172 0.09408,-1.60979c0.48085,-1.40073 0.60629,-2.18472 0.61674,-3.9095c0,-1.37982 -0.03136,-1.74569 -0.24042,-2.4565c-0.39722,-1.43209 -1.02441,-2.35197 -2.10109,-3.0837c-0.34496,-0.24042 -0.40768,-1.00351 -0.10453,-1.39028c0.12544,-0.1568 0.26133,-0.28224 0.30314,-0.28224c0.04181,0 0.30314,0.14634 0.57493,0.3345zM17.55723,25.3586c0.43903,0.21952 1.22303,1.1394 1.52617,1.79795c0.8049,1.69342 0.79444,4.48443 -0.03136,6.56462c-0.24042,0.60629 -0.44949,0.78399 -0.68991,0.58538c-0.24042,-0.19861 -0.20906,-0.67946 0.09408,-1.55753c0.8258,-2.42514 0.3345,-5.15343 -1.08713,-6.08377c-0.6481,-0.42858 -0.74218,-0.63765 -0.53311,-1.19167c0.11499,-0.3136 0.30314,-0.3345 0.72127,-0.11499zM15.6861,27.18791c1.26484,0.6481 1.85022,2.79101 1.28574,4.65168c-0.29269,0.94079 -0.47039,1.19167 -0.73172,1.03487c-0.24042,-0.14634 -0.21952,-0.43903 0.07317,-1.24393c0.18816,-0.51221 0.21952,-0.78399 0.18816,-1.46345c-0.06272,-1.12895 -0.4913,-1.91294 -1.25439,-2.31016c-0.3136,-0.16725 -0.38677,-0.53311 -0.16725,-0.75263c0.1568,-0.1568 0.12544,-0.16725 0.60629,0.08363z" id="path 1 1" fill="none" stroke-width="0"></path><path d="M36.21621,8.5812c0.21952,0.1777 0.1568,0.50175 -0.27178,1.453c-0.58538,1.30665 -1.23348,3.14642 -1.34846,3.85723c-0.06272,0.38677 -0.1777,0.9617 -0.26133,1.28574c-0.1777,0.68991 -0.18816,1.34846 -0.03136,1.92339c0.09408,0.3345 0.39722,0.68991 1.50526,1.77705c0.77354,0.74218 1.453,1.49481 1.51572,1.67251c0.06272,0.16725 0.12544,0.63765 0.12544,1.04532c0,0.8258 0.24042,2.14291 0.45994,2.58194c0.08363,0.1568 0.37632,0.58538 0.65855,0.95124c0.60629,0.8049 0.79444,1.4739 0.71082,2.4356c-0.08363,0.89898 -0.28224,1.22303 -1.48436,2.51922c-1.30665,1.39028 -1.50526,1.48436 -2.97916,1.4739c-1.39028,-0.02091 -2.21608,-0.18816 -3.21959,-0.68991c-0.74218,-0.35541 -0.87807,-0.38677 -1.71433,-0.38677c-0.4913,0 -0.93034,0.03136 -0.9617,0.06272c-0.03136,0.03136 0.01045,0.78399 0.10453,1.67251c0.09408,1.00351 0.13589,2.11155 0.10453,2.9478c-0.02091,0.74218 0,1.76659 0.05227,2.28925c0.06272,0.63765 0.06272,1.07668 -0.02091,1.37982c-0.11499,0.44949 -0.11499,0.45994 -0.75263,0.59583c-0.77354,0.1777 -3.05234,0.16725 -4.35899,-0.01045c-1.95475,-0.27178 -4.27536,-0.9826 -6.75277,-2.08019c-2.38333,-1.05577 -3.44956,-1.70387 -5.26842,-3.23004c-1.69342,-1.41118 -2.02792,-1.73523 -2.84327,-2.79101c-0.74218,-0.93034 -0.66901,-1.17076 0.51221,-1.9652c0.39722,-0.25088 0.95124,-0.72127 1.23348,-1.02441c1.54707,-1.66206 2.10109,-2.15336 2.6133,-2.33107c0.48085,-0.1777 0.61674,-0.30314 1.35892,-1.30665c0.44949,-0.60629 0.97215,-1.30665 1.1394,-1.55753c1.41118,-1.97566 2.81191,-3.49137 3.71089,-4.01403c0.36586,-0.19861 0.44949,-0.32405 0.59583,-0.8049c0.20906,-0.73172 0.87807,-2.05928 1.49481,-2.97916c0.66901,-1.00351 2.33107,-2.71783 3.35548,-3.46001c0.47039,-0.34496 1.14985,-0.85716 1.50526,-1.1394c0.86762,-0.68991 1.59934,-1.01396 2.32061,-1.03487c0.53311,-0.01045 0.61674,0.02091 0.84671,0.29269c0.22997,0.26133 0.25088,0.36586 0.19861,0.78399c-0.04181,0.27178 -0.02091,0.60629 0.03136,0.74218c0.05227,0.13589 0.10453,0.19861 0.10453,0.12544c0.01045,-0.06272 0.19861,-0.35541 0.42858,-0.6481c0.3345,-0.42858 0.61674,-0.61674 1.53662,-1.08713c1.17076,-0.58538 1.28574,-0.62719 2.74919,-1.17076c0.9826,-0.35541 1.05577,-0.36586 1.2962,-0.1568zM31.4809,10.94362l-0.24042,0.30314l0.8258,0.06272c0.44949,0.04181 1.00351,0.10453 1.23348,0.14634c0.47039,0.08363 0.9617,-0.06272 1.05577,-0.3136c0.11499,-0.29269 -0.06272,-0.67946 -0.40768,-0.88852c-0.71082,-0.43903 -1.81886,-0.12544 -2.46696,0.68991zM21.80123,20.70692c-0.34496,0.66901 -0.14634,1.35892 0.4913,1.68297c1.17076,0.59583 2.35197,2.41469 2.80146,4.29627c0.61674,2.6133 0.43903,5.48793 -0.52266,8.34166c-0.48085,1.42164 -0.51221,1.75614 -0.16725,2.15336c0.22997,0.28224 0.26133,0.28224 0.4913,0.12544c0.40768,-0.27178 1.1394,-2.46696 1.51572,-4.57851c0.25088,-1.39028 0.25088,-4.49488 0,-5.84334c-0.51221,-2.78055 -1.72478,-5.00709 -3.30321,-6.06286c-0.78399,-0.52266 -1.08713,-0.54357 -1.30665,-0.11499zM19.64787,22.90209c-0.04181,0 -0.1777,0.12544 -0.30314,0.28224c-0.30314,0.38677 -0.24042,1.14985 0.10453,1.39028c1.07668,0.73172 1.70387,1.65161 2.10109,3.0837c0.20906,0.71082 0.24042,1.07668 0.24042,2.4565c-0.01045,1.72478 -0.13589,2.50877 -0.61674,3.9095c-0.30314,0.87807 -0.32405,1.28574 -0.09408,1.60979c0.34496,0.4913 0.63765,0.20906 1.01396,-0.97215c1.50526,-4.60987 0.65855,-9.75284 -1.87112,-11.42536c-0.27178,-0.18816 -0.53311,-0.3345 -0.57493,-0.3345zM16.83596,25.47358c-0.20906,0.55402 -0.11499,0.76308 0.53311,1.19167c1.42164,0.93034 1.91294,3.65862 1.08713,6.08377c-0.30314,0.87807 -0.3345,1.35892 -0.09408,1.55753c0.24042,0.19861 0.44949,0.02091 0.68991,-0.58538c0.8258,-2.08019 0.83626,-4.8712 0.03136,-6.56462c-0.30314,-0.65855 -1.08713,-1.57843 -1.52617,-1.79795c-0.41813,-0.21952 -0.60629,-0.19861 -0.72127,0.11499zM15.07982,27.10428c-0.21952,0.21952 -0.14634,0.58538 0.16725,0.75263c0.76308,0.39722 1.19167,1.18121 1.25439,2.31016c0.03136,0.67946 0,0.95124 -0.18816,1.46345c-0.29269,0.8049 -0.3136,1.09759 -0.07317,1.24393c0.26133,0.1568 0.43903,-0.09408 0.73172,-1.03487c0.56447,-1.86067 -0.02091,-4.00358 -1.28574,-4.65168c-0.48085,-0.25088 -0.44949,-0.24042 -0.60629,-0.08363z" id="path 1 1" fill="#ffffff" stroke-width="0"></path><path d="M2,24c0,-12.15026 9.84974,-22 22,-22c12.15026,0 22,9.84974 22,22c0,12.15026 -9.84974,22 -22,22c-12.15026,0 -22,-9.84974 -22,-22z" id="base 1 1 1" fill="none" stroke-width="1"></path><g id="vector 1 1" fill="#000000" stroke-width="1" font-family="Roboto, sans-serif" font-weight="normal" font-size="14" text-anchor="start"><g id="group 1 1"></g></g><rect x="2" y="2" width="44" height="22" fill="none" stroke-width="1"></rect><path d="M2,24v-22h44v22z" fill="none" stroke-width="1"></path><path d="M2,24v-22h44v22z" fill="none" stroke-width="1"></path><path d="M2,24v-22h44v22z" fill="none" stroke-width="1"></path><path d="M2,24v-22h44v22z" fill="none" stroke-width="1"></path></g></svg>