<svg
    xmlns="http://www.w3.org/2000/svg"
    viewBox="0 0 300 300"
    id="vector">
    <g
        id="group"
        transform="translate(0 300) scale(0.1 -0.1)">
        <path
            id="path"
            d="M 2530 2955 C 2390 2903 2379 2899 2267 2843 C 2179 2798 2152 2780 2120 2739 C 2098 2711 2080 2683 2079 2677 C 2079 2670 2074 2676 2069 2689 C 2064 2702 2062 2734 2066 2760 C 2071 2800 2069 2810 2047 2835 C 2025 2861 2017 2864 1966 2863 C 1897 2861 1827 2830 1744 2764 C 1710 2737 1645 2688 1600 2655 C 1502 2584 1343 2420 1279 2324 C 1220 2236 1156 2109 1136 2039 C 1122 1993 1114 1981 1079 1962 C 993 1912 859 1767 724 1578 C 708 1554 658 1487 615 1429 C 544 1333 531 1321 485 1304 C 436 1287 383 1240 235 1081 C 208 1052 155 1007 117 983 C 4 907 -3 884 68 795 C 146 694 178 663 340 528 C 514 382 616 320 844 219 C 1081 114 1303 46 1490 20 C 1615 3 1833 2 1907 19 C 1968 32 1968 33 1979 76 C 1987 105 1987 147 1981 208 C 1976 258 1974 356 1976 427 C 1979 507 1975 613 1966 709 C 1957 794 1953 866 1956 869 C 1959 872 2001 875 2048 875 C 2128 875 2141 872 2212 838 C 2308 790 2387 774 2520 772 C 2661 771 2680 780 2805 913 C 2920 1037 2939 1068 2947 1154 C 2955 1246 2937 1310 2879 1387 C 2852 1422 2824 1463 2816 1478 C 2795 1520 2772 1646 2772 1725 C 2772 1764 2766 1809 2760 1825 C 2754 1842 2689 1914 2615 1985 C 2509 2089 2480 2123 2471 2155 C 2456 2210 2457 2273 2474 2339 C 2482 2370 2493 2425 2499 2462 C 2510 2530 2572 2706 2628 2831 C 2669 2922 2675 2953 2654 2970 C 2631 2990 2624 2989 2530 2955 Z M 2437 2810 C 2470 2790 2487 2753 2476 2725 C 2467 2701 2420 2687 2375 2695 C 2353 2699 2300 2705 2257 2709 L 2178 2715 L 2201 2744 C 2263 2822 2369 2852 2437 2810 Z M 1400 1799 C 1551 1698 1667 1485 1716 1219 C 1740 1090 1740 793 1716 660 C 1680 458 1610 248 1571 222 C 1549 207 1546 207 1524 234 C 1491 272 1494 304 1540 440 C 1632 713 1649 988 1590 1238 C 1547 1418 1434 1592 1322 1649 C 1261 1680 1242 1746 1275 1810 C 1296 1851 1325 1849 1400 1799 Z M 1124 1568 C 1366 1408 1447 916 1303 475 C 1267 362 1239 335 1206 382 C 1184 413 1186 452 1215 536 C 1261 670 1273 745 1274 910 C 1274 1042 1271 1077 1251 1145 C 1213 1282 1153 1370 1050 1440 C 1017 1463 1011 1536 1040 1573 C 1052 1588 1065 1600 1069 1600 C 1073 1600 1098 1586 1124 1568 Z M 869 1365 C 911 1344 986 1256 1015 1193 C 1092 1031 1091 764 1012 565 C 989 507 969 490 946 509 C 923 528 926 574 955 658 C 1034 890 987 1151 851 1240 C 789 1281 780 1301 800 1354 C 811 1384 829 1386 869 1365 Z M 690 1190 C 811 1128 867 923 813 745 C 785 655 768 631 743 646 C 720 660 722 688 750 765 C 768 814 771 840 768 905 C 762 1013 721 1088 648 1126 C 618 1142 611 1177 632 1198 C 647 1213 644 1214 690 1190 Z"
            fill="#000000"
            stroke-width="1"/>
    </g>
</svg>
