<?xml version="1.0" encoding="UTF-8" standalone="no"?>
<svg height="11.32333mm"
    id="svg8"
    version="1.1"
    viewBox="0 0 8.75 11.32333"
    width="8.75mm"
    xmlns="http://www.w3.org/2000/svg">
    <defs id="defs2" />
    <g id="layer1" transform="translate(-102.975,-140.685)">
        <g style="fill:#000000"
            id="g55"
            transform="matrix(0.26458333,0,0,0.26458333,104.17024,145.65833)">
            <path style="fill:none" d="M 0,0 H 24 V 24 H 0 Z" id="path41" />
            <path d="m 5,16 c 0,3.87 3.13,7 7,7 3.87,0 7,-3.13 7,-7 V 12 H 5 Z M 16.12,4.37 18.22,2.27 17.4,1.44 15.1,3.75 C 14.16,3.28 13.12,3 12,3 10.88,3 9.84,3.28 8.91,3.75 L 6.6,1.44 5.78,2.27 7.88,4.37 C 6.14,5.64 5,7.68 5,10 v 1 H 19 V 10 C 19,7.68 17.86,5.64 16.12,4.37 Z M 9,9 C 8.45,9 8,8.55 8,8 8,7.45 8.45,7 9,7 9.55,7 10,7.45 10,8 10,8.55 9.55,9 9,9 Z m 6,0 c -0.55,0 -1,-0.45 -1,-1 0,-0.55 0.45,-1 1,-1 0.55,0 1,0.45 1,1 0,0.55 -0.45,1 -1,1 z"
                id="path43" />
        </g>
        <g style="fill:#000000"
            id="g114"
            transform="matrix(0.36458333,0,0,0.36458333,102.975,140.685)">
            <path style="fill:none" d="M 0,0 H 24 V 24 H 0 Z" id="path100" />
            <path d="m 12,10.996629 c -1.1,0 -2,0.9 -2,2 0,1.1 0.9,2 2,2 1.1,0 2,-0.9 2,-2 0,-1.1 -0.9,-2 -2,-2 z m 6,2 c 0,-3.3099995 -2.69,-5.9999995 -6,-5.9999995 -3.31,0 -6,2.69 -6,5.9999995 0,2.22 1.21,4.15 3,5.19 l 1,-1.74 c -1.19,-0.7 -2,-1.97 -2,-3.45 0,-2.21 1.79,-3.9999995 4,-3.9999995 2.21,0 4,1.7899995 4,3.9999995 0,1.48 -0.81,2.75 -2,3.45 l 1,1.74 c 1.79,-1.04 3,-2.97 3,-5.19 z M 12,2.9966295 c -5.52,0 -10,4.48 -10,9.9999995 0,3.7 2.01,6.92 4.99,8.65 l 1,-1.73 c -2.38,-1.39 -3.99,-3.96 -3.99,-6.92 0,-4.4199995 3.58,-7.9999995 8,-7.9999995 4.42,0 8,3.58 8,7.9999995 0,2.96 -1.61,5.53 -4,6.92 l 1.066944,1.707362 C 20.056944,19.893991 22,16.696629 22,12.996629 22,7.4766295 17.52,2.9966295 12,2.9966295 Z"
                id="path102" />
        </g>
    </g>
</svg>
